<?xml version="1.0" standalone="no"?>
<!DOCTYPE svg PUBLIC "-//W3C//DTD SVG 20010904//EN"
 "http://www.w3.org/TR/2001/REC-SVG-20010904/DTD/svg10.dtd">
<svg version="1.0" xmlns="http://www.w3.org/2000/svg"
 width="211.000000pt" height="158.000000pt" viewBox="0 0 211.000000 158.000000"
 preserveAspectRatio="xMidYMid meet">

<g transform="translate(0.000000,158.000000) scale(0.100000,-0.100000)"
fill="#ffffff" stroke="none">
<path d="M894 1411 c-28 -5 -68 -14 -88 -21 -52 -17 -167 -138 -212 -223 -26
-51 -44 -72 -72 -86 -73 -37 -75 -43 -76 -215 0 -174 0 -173 77 -212 39 -20
53 -34 69 -71 11 -25 38 -65 60 -89 44 -48 44 -65 1 -87 -41 -21 -94 -2 -104
37 -9 33 -46 76 -66 76 -8 0 -17 8 -20 18 -4 9 -9 19 -13 22 -14 11 -120 282
-120 306 0 14 8 38 19 52 35 50 34 67 -5 188 -20 63 -44 125 -54 136 l-17 22
-92 -34 c-101 -36 -154 -67 -159 -91 -4 -22 85 -208 116 -241 14 -15 40 -31
59 -34 40 -8 75 -47 98 -111 10 -26 28 -73 41 -103 39 -91 47 -145 28 -182
-22 -42 -13 -137 17 -185 27 -44 86 -87 153 -112 29 -11 69 -29 90 -40 29 -17
54 -21 121 -21 47 0 85 4 85 9 0 5 -37 11 -82 13 -46 3 -96 11 -112 17 l-29
12 6 77 c3 42 11 92 17 110 l12 32 86 0 c48 0 112 -7 142 -15 30 -8 69 -15 87
-15 62 0 64 -9 16 -53 -53 -49 -70 -78 -74 -132 -6 -57 15 -55 23 2 6 42 15
56 70 109 l63 61 105 6 c58 4 132 14 165 22 33 8 97 14 143 15 81 0 83 -1 93
-27 18 -48 31 -135 25 -169 -6 -28 -12 -33 -51 -43 -24 -6 -74 -11 -110 -11
-44 0 -64 -4 -60 -11 5 -6 38 -9 89 -7 163 7 357 118 386 223 15 52 8 119 -13
143 -19 21 -10 81 26 175 14 34 32 83 41 109 10 26 31 64 48 85 42 53 42 54
87 204 45 148 45 152 -21 164 -35 7 -38 5 -48 -21 -6 -16 -19 -47 -29 -69 -66
-143 -73 -164 -81 -245 -5 -48 -17 -105 -29 -130 -11 -25 -21 -52 -21 -60 0
-8 -16 -48 -36 -90 -27 -58 -42 -78 -67 -90 -23 -11 -36 -27 -47 -58 -12 -35
-21 -44 -49 -52 -37 -10 -55 -4 -84 28 -18 20 -18 21 23 63 23 24 53 65 66 90
18 37 36 54 76 76 47 25 54 33 60 68 9 50 10 204 2 271 -6 49 -8 52 -54 75
-41 20 -53 34 -79 87 -19 39 -60 93 -108 142 -100 105 -117 111 -368 115 -104
2 -213 0 -241 -4z m334 -16 c7 -3 12 -21 12 -46 0 -33 -3 -40 -16 -35 -34 13
-152 18 -204 8 -30 -6 -58 -8 -61 -6 -3 2 -3 20 0 41 l6 38 65 5 c65 5 174 2
198 -5z m-295 -42 c-6 -40 -19 -63 -35 -63 -22 0 -168 -79 -224 -121 -95 -71
-97 -71 -50 11 74 129 181 207 288 209 25 1 26 -1 21 -36z m448 17 c47 -13
154 -118 192 -188 16 -29 26 -52 23 -52 -3 0 -33 20 -68 44 -67 47 -159 95
-220 117 -27 9 -38 19 -38 34 0 11 -3 31 -7 44 -6 23 -5 24 38 17 24 -4 60
-11 80 -16z m-177 -79 c16 -3 31 -12 34 -19 3 -10 -3 -11 -25 -6 -37 10 -168
10 -217 0 -29 -6 -37 -4 -34 6 6 18 49 26 138 26 41 0 88 -3 104 -7z m197 -66
c67 -34 164 -103 203 -144 39 -41 28 -39 -23 4 -62 51 -178 119 -248 146 -35
13 -63 29 -63 36 0 15 49 -1 131 -42z m-471 36 c0 -4 -21 -16 -47 -26 -70 -26
-177 -89 -250 -146 -34 -28 -63 -46 -63 -41 0 16 130 117 206 159 97 55 154
75 154 54z m-645 -38 c23 -56 75 -220 75 -235 0 -10 -12 -40 -27 -68 l-28 -49
23 -63 c13 -35 35 -92 49 -128 33 -86 39 -114 24 -109 -7 3 -38 63 -68 134
-30 72 -62 137 -70 147 -8 9 -29 19 -46 22 -18 3 -43 14 -56 23 -23 16 -121
209 -121 238 0 17 59 49 150 81 80 28 86 28 95 7z m1671 -143 c-25 -67 -44
-126 -40 -131 17 -28 36 5 84 141 26 75 40 104 46 97 6 -5 -63 -242 -79 -272
-6 -11 -23 -36 -39 -56 -23 -29 -91 -183 -115 -261 -3 -10 -11 -18 -18 -18 -9
0 1 41 31 128 29 85 44 144 44 180 0 40 12 81 51 175 28 67 56 128 62 135 23
29 16 -3 -27 -118z m-1086 25 c0 -8 -34 -44 -74 -81 -82 -73 -121 -125 -146
-194 -26 -74 -60 -60 -60 25 0 50 20 104 51 140 82 93 229 164 229 110z m-331
-77 c-13 -41 -12 -224 0 -298 5 -30 8 -56 6 -58 -2 -2 -17 4 -34 12 -39 21
-44 46 -39 214 3 117 5 133 23 146 11 9 28 16 37 16 14 0 15 -5 7 -32z m1162
13 c21 -17 24 -28 27 -125 3 -58 1 -131 -3 -161 -6 -48 -10 -57 -37 -71 -16
-8 -32 -14 -34 -12 -2 2 1 31 6 64 12 73 13 236 1 287 -10 43 2 49 40 18z
m-981 -486 c130 -36 187 -45 320 -52 188 -8 380 21 508 77 29 13 42 15 40 7
-6 -17 -105 -55 -212 -80 -132 -31 -420 -31 -552 0 -112 26 -206 63 -212 83
-4 12 -2 12 19 -1 13 -9 53 -24 89 -34z m-296 -25 c-10 -4 -21 -6 -24 -3 -8 7
24 22 34 16 5 -4 1 -10 -10 -13z m1366 10 c12 -8 11 -10 -7 -10 -13 0 -23 5
-23 10 0 13 11 13 30 0z m-1007 -45 c200 -50 444 -49 646 3 61 16 111 26 111
21 0 -13 -73 -69 -125 -94 -76 -38 -175 -55 -315 -55 -145 0 -240 17 -325 59
-54 27 -153 112 -114 98 9 -3 63 -17 122 -32z m-263 -25 c22 -41 12 -79 -35
-126 -45 -45 -55 -64 -33 -64 6 0 19 -7 28 -15 13 -12 23 -13 43 -6 36 14 41
28 27 72 -16 48 -5 65 35 55 22 -6 26 -11 20 -29 -4 -12 -9 -57 -12 -99 -4
-53 -10 -78 -18 -78 -23 0 -104 40 -136 67 -87 74 -90 221 -5 252 27 10 74 -6
86 -29z m1284 -1 c42 -50 30 -146 -27 -207 -18 -19 -145 -92 -160 -92 -2 0 -7
35 -11 78 -3 42 -9 89 -12 104 -5 23 -2 28 21 34 40 10 51 -7 36 -57 -10 -34
-10 -44 1 -54 23 -22 55 -27 71 -10 9 8 20 15 26 15 22 0 10 21 -34 63 -37 36
-45 50 -45 80 0 77 84 106 134 46z m-1069 -49 c3 -5 -3 -10 -15 -10 -12 0 -18
5 -15 10 3 6 10 10 15 10 5 0 12 -4 15 -10z m760 0 c3 -5 -3 -10 -15 -10 -12
0 -18 5 -15 10 3 6 10 10 15 10 5 0 12 -4 15 -10z"/>
<path d="M250 1184 c0 -6 14 -48 30 -94 17 -46 30 -85 30 -87 0 -2 4 -2 10 2
5 3 -3 40 -21 88 -28 77 -49 115 -49 91z"/>
<path d="M212 1158 c3 -7 15 -42 27 -78 23 -71 37 -97 45 -89 8 8 -55 179 -67
179 -5 0 -7 -6 -5 -12z"/>
<path d="M170 1148 c0 -25 62 -178 72 -178 12 0 11 3 -24 93 -33 86 -48 112
-48 85z"/>
<path d="M120 1134 c0 -17 74 -174 82 -174 11 0 12 -4 -32 103 -18 42 -37 77
-41 77 -5 0 -9 -3 -9 -6z"/>
<path d="M80 1115 c0 -5 71 -169 76 -174 2 -2 7 -1 10 2 8 8 -66 177 -78 177
-4 0 -8 -2 -8 -5z"/>
<path d="M974 199 c-10 -17 13 -36 27 -22 12 12 4 33 -11 33 -5 0 -12 -5 -16
-11z"/>
</g>
</svg>
